<svg width="20.899414" height="21.242188" viewBox="0 0 20.8994 21.2422" fill="none" xmlns="http://www.w3.org/2000/svg" xmlns:xlink="http://www.w3.org/1999/xlink">
	<desc>
			Created with Pixso.
	</desc>
	<defs/>
	<path id="Vector" d="M3.24316 4.65625L0 1.41406L1.41504 0L4.65723 3.24219L19.8994 3.24219C20.0547 3.24219 20.209 3.28125 20.3477 3.34766C20.4873 3.41797 20.6084 3.51953 20.7012 3.64453C20.7939 3.76953 20.8564 3.91406 20.8838 4.07031C20.9111 4.22266 20.9014 4.37891 20.8574 4.53125L18.457 12.5312C18.3955 12.7344 18.2686 12.918 18.0957 13.0469C17.9238 13.1719 17.7139 13.2422 17.499 13.2422L5.24316 13.2422L5.24316 15.2422L16.2432 15.2422L16.2432 17.2422L4.24316 17.2422C3.97754 17.2422 3.72363 17.1367 3.53613 16.9492C3.34863 16.7617 3.24316 16.5078 3.24316 16.2422L3.24316 4.65625ZM5.24316 5.24219L5.24316 11.2422L16.7549 11.2422L18.5547 5.24219L5.24316 5.24219ZM4.74316 21.2422C4.34473 21.2422 3.96387 21.0859 3.68262 20.8047C3.40137 20.5234 3.24316 20.1406 3.24316 19.7422C3.24316 19.3438 3.40137 18.9648 3.68262 18.6836C3.96387 18.4023 4.34473 18.2422 4.74316 18.2422C5.14062 18.2422 5.52246 18.4023 5.80371 18.6836C6.08496 18.9648 6.24316 19.3438 6.24316 19.7422C6.24316 20.1406 6.08496 20.5234 5.80371 20.8047C5.52246 21.0859 5.14062 21.2422 4.74316 21.2422ZM16.7432 21.2422C16.3447 21.2422 15.9639 21.0859 15.6826 20.8047C15.4014 20.5234 15.2432 20.1406 15.2432 19.7422C15.2432 19.3438 15.4014 18.9648 15.6826 18.6836C15.9639 18.4023 16.3447 18.2422 16.7432 18.2422C17.1406 18.2422 17.5225 18.4023 17.8037 18.6836C18.085 18.9648 18.2432 19.3438 18.2432 19.7422C18.2432 20.1406 18.085 20.5234 17.8037 20.8047C17.5225 21.0859 17.1406 21.2422 16.7432 21.2422Z" fill="#161616" fill-opacity="1.000000" fill-rule="nonzero"/>
</svg>
