<svg width="20.314453" height="20.312500" viewBox="0 0 20.3145 20.3125" fill="none" xmlns="http://www.w3.org/2000/svg" xmlns:xlink="http://www.w3.org/1999/xlink">
	<desc>
			Created with Pixso.
	</desc>
	<defs/>
	<path id="Vector" d="M16.0312 14.6172L20.3145 18.8984L18.8994 20.3125L14.6172 16.0312C13.0234 17.3086 11.042 18.0039 9 18C4.03223 18 0 13.9688 0 9C0 4.03125 4.03223 0 9 0C13.9678 0 18 4.03125 18 9C18.0029 11.043 17.3086 13.0234 16.0312 14.6172ZM14.0254 13.875C15.2939 12.5703 16.0029 10.8203 16 9C16 5.13281 12.8672 2 9 2C5.13184 2 2 5.13281 2 9C2 12.8672 5.13184 16 9 16C10.8203 16.0039 12.5703 15.293 13.875 14.0234L14.0254 13.875Z" fill="#161616" fill-opacity="1.000000" fill-rule="nonzero"/>
</svg>
